<svg class="icon" viewBox="0 0 1024 1024" version="1.1" xmlns="http://www.w3.org/2000/svg"
    width="200" height="200">
    <path
        d="M490.048 110.976L164.16 273.92a49.472 49.472 0 0 0-27.456 44.16v388.032a49.408 49.408 0 0 0 27.136 44.416l325.824 162.944a49.472 49.472 0 0 0 44.288 0l325.888-162.944a49.472 49.472 0 0 0 27.456-44.288V318.144a49.472 49.472 0 0 0-27.52-44.288l-325.76-162.88a49.408 49.408 0 0 0-43.968 0zM562.56 53.696l325.76 162.88c38.592 19.2 62.976 58.496 63.04 101.568v388.16c0 43.008-24.448 82.368-62.912 101.504l-325.76 162.88c-32 16-69.632 16-101.568 0L135.04 807.744a113.344 113.344 0 0 1-62.4-101.888V318.144c0-43.072 24.448-82.432 62.912-101.504L461.504 53.696a113.472 113.472 0 0 1 100.992 0z"
        fill="#000000" />
    <path
        d="M512 435.52l379.904-190.016a32 32 0 1 1 28.672 57.28l-394.24 197.12a32 32 0 0 1-28.672 0L103.424 302.72a32 32 0 0 1 28.672-57.28L512 435.52z"
        fill="#000000" />
    <path d="M544 950.208a32 32 0 1 1-64 0V471.296a32 32 0 0 1 64 0v478.912z" fill="#000000" />
</svg>