<svg class="icon" viewBox="0 0 1042 1024" version="1.1" xmlns="http://www.w3.org/2000/svg"
    width="200" height="200">
    <path
        d="M585.871647 487.136623l4.744166 487.146018-4.744166-487.146018zM208.649369 377.381982l397.711439 96.640075 29.244732-17.003843c-196.586975-65.535254-201.039915-129.266786-189.98272-172.584312L208.630581 377.372588h0.009394z" />
    <path
        d="M458.070385 0h52.824647v155.852906H458.070385V0z m244.348046 21.137374l-77.879481 134.90342 44.012711 23.636281 77.879481-134.903419L702.418431 21.137374zM197.282159 80.697798l90.693427 126.448469 42.10565-29.404436-90.514934-126.429681L197.282159 80.697798z m839.388616 398.744821l-130.675944-153.72038a23.936902 23.936902 0 0 0-16.458969-12.682424l-417.871797-86.099571a23.814775 23.814775 0 0 0-13.584285 1.164904L120.952752 360.885436c-1.92585 0.845495-3.729572 1.944638-5.364195 3.269247h-1.15551c-1.719173 1.869483-3.38198 3.785939-4.960237 5.768155L3.278642 552.455807a24.077818 24.077818 0 0 0 14.542513 35.360478l88.203914 23.260506v252.878151c0 10.672025 7.017608 20.066414 17.219914 23.063224l470.687049 135.852253c6.388184 2.019794 13.340032 1.249454 19.13637-2.113738l296.571452-167.163749a24.030846 24.030846 0 0 0 12.240888-21.137375l-3.043782-251.168372L1030.940198 514.812492a24.077818 24.077818 0 0 0 5.92786-36.3281l-0.187888 0.958227v0.009395zM468.986665 275.387106l350.128861 73.022582-38.25395 22.283489-174.688655 103.385246-325.271309-78.978624-72.712568-17.689634 260.807015-102.023059zM60.293186 550.548746l81.327221-139.694558 126.852429 30.73844 286.99857 69.941222L457.882497 655.850447 60.293186 550.548746z m93.943885 296.505691V624.914726l308.624452 81.665419a23.861747 23.861747 0 0 0 25.834569-9.798347l83.610058-123.75228 3.83291 395.672856-421.901989-121.638542z m469.353046 113.568763l-3.832911-397.965087 74.046571 125.095678a23.861747 23.861747 0 0 0 32.720655 8.454949l144.654795-85.705006 2.480119 209.269399-250.069229 140.850067zM722.71031 642.576176l-79.213484-133.541233 161.489539-96.085806 74.046571-44.191204 102.934315 120.295146L722.71031 642.594965h-0.018788z" />
</svg>

