<svg class="icon" viewBox="0 0 1024 1024" version="1.1" xmlns="http://www.w3.org/2000/svg"
    width="200" height="200">
    <path
        d="M782.176 812.832a174.464 174.464 0 1 0 0-348.992 174.464 174.464 0 1 0 0 348.992z m-539.328 0a174.464 174.464 0 1 0 0-348.992 174.464 174.464 0 1 0 0 348.992z m649.824-385.28l-82.368-178.464a63.456 63.456 0 0 0-84.192-31.008l-1.792 0.864-38.944 19.488a31.68 31.68 0 1 1-28.384-56.736l38.944-19.488c1.792-0.896 1.792-0.896 3.616-1.728a126.912 126.912 0 0 1 168.416 62.048l149.184 323.264a31.776 31.776 0 0 1-4.352 33.536 237.952 237.952 0 1 1-468 43.2h-0.512a31.68 31.68 0 1 0-63.424 0h-0.512c0.32 4.736 0.512 10.272 0.512 15.84v0.032a237.952 237.952 0 1 1-475.904 0c0-20.352 2.56-40.128 7.36-58.976a31.744 31.744 0 0 1-4.448-33.632L157.056 222.528a126.912 126.912 0 0 1 168.416-62.048l3.616 1.728 38.944 19.488a31.712 31.712 0 1 1-28.384 56.736l-38.944-19.488-1.792-0.864a63.456 63.456 0 0 0-84.192 31.008l-82.4 178.56a237.984 237.984 0 0 1 328.512 114.976c14.912-9.664 32.672-15.296 51.776-15.296s36.864 5.632 51.776 15.296a237.984 237.984 0 0 1 217.888-142.208c39.872 0 77.472 9.824 110.496 27.136z" />
</svg>